<svg width="66" height="5" viewBox="0 0 66 5" fill="none" xmlns="http://www.w3.org/2000/svg">
<g id="pavigation">
<g id="Pavigation">
<path id="Rectangle 3" d="M6.5 0H2.5C1.11929 0 0 1.11929 0 2.5C0 3.88071 1.11929 5 2.5 5H6.5C7.88071 5 9 3.88071 9 2.5C9 1.11929 7.88071 0 6.5 0Z" fill="#EAEAFF"/>
<path id="Rectangle 4" d="M25.5 0H21.5C20.1193 0 19 1.11929 19 2.5C19 3.88071 20.1193 5 21.5 5H25.5C26.8807 5 28 3.88071 28 2.5C28 1.11929 26.8807 0 25.5 0Z" fill="#EAEAFF"/>
<path id="Rectangle 2" d="M63.5 0H40.5C39.1193 0 38 1.11929 38 2.5C38 3.88071 39.1193 5 40.5 5H63.5C64.8807 5 66 3.88071 66 2.5C66 1.11929 64.8807 0 63.5 0Z" fill="#3D5CFF"/>
</g>
</g>
</svg>
